<svg width="90" height="27" viewBox="0 0 80 24" fill="none" xmlns="http://www.w3.org/2000/svg">
<path d="M74.42 7.61986C74.29 7.15986 74.14 6.83986 73.95 6.64986V6.62986H73.92C73.8 6.35986 73.67 6.08986 73.53 5.82986C73.39 5.56986 73.21 5.32986 73.01 5.10986C72.91 4.98986 72.79 4.87986 72.65 4.76986C72.51 4.65986 72.38 4.54986 72.24 4.44986C72.04 4.27986 71.8301 4.11986 71.6201 3.94986C71.4101 3.78986 71.19 3.63986 70.97 3.50986C70.66 3.31986 70.35 3.14986 70.02 2.99986C69.69 2.84986 69.35 2.72986 68.99 2.63986C68.82 2.60986 68.66 2.57986 68.49 2.55986C68.33 2.53986 68.16 2.51986 67.99 2.47986C67.96 2.47986 67.9 2.47986 67.81 2.44986C67.47 2.39986 67.13 2.35986 66.79 2.31986C66.45 2.28986 66.11 2.28986 65.77 2.31986C65.58 2.33986 65.4 2.36986 65.22 2.41986C65.04 2.46986 64.87 2.51986 64.7 2.56986C64.53 2.61986 64.36 2.66986 64.19 2.70986C64.02 2.74986 63.85 2.80986 63.68 2.86986C63.54 3.00986 63.44 3.07986 63.36 3.09986C63.28 3.11986 63.21 3.11986 63.14 3.09986C63.07 3.09986 63 3.09986 62.92 3.12986C62.84 3.15986 62.75 3.20986 62.63 3.30986V3.33986H62.6C62.28 3.47986 61.96 3.58986 61.63 3.69986C61.3 3.80986 61.01 3.95986 60.74 4.17986C60.59 4.29986 60.45 4.42986 60.32 4.56986C60.19 4.70986 60.07 4.85986 59.95 5.00986C59.48 5.59986 59.09 6.25986 58.81 6.96986C58.71 7.23986 58.6 7.50986 58.49 7.77986C58.38 8.04986 58.29 8.31986 58.22 8.58986C58.15 8.87986 58.12 9.16986 58.13 9.44986C58.13 9.73986 58.17 10.0299 58.22 10.3099C58.24 10.4599 58.26 10.6199 58.28 10.7899C58.3 10.9599 58.34 11.1199 58.39 11.2699C58.51 11.6299 58.7 11.9099 58.97 12.1199C59.24 12.3299 59.52 12.5299 59.81 12.7199C59.93 12.7999 60.05 12.8899 60.17 12.9699C60.29 13.0499 60.42 13.1299 60.55 13.1999C60.74 13.2999 60.92 13.3999 61.11 13.4799C61.3 13.5699 61.48 13.6499 61.67 13.7299C61.86 13.8199 62.04 13.9099 62.22 14.0099C62.4 14.1099 62.57 14.1999 62.74 14.2899C62.93 14.3799 63.1 14.4399 63.27 14.4799C63.44 14.5199 63.63 14.5599 63.83 14.5899H63.88C63.98 14.6699 64.07 14.7299 64.13 14.7699C64.13 14.7499 64.13 14.7399 64.16 14.7199C64.19 14.6499 64.23 14.6299 64.27 14.6399C64.31 14.6599 64.35 14.6799 64.38 14.7199C64.4 14.7399 64.42 14.7599 64.46 14.7999C64.49 14.7299 64.5 14.7299 64.49 14.7999C64.54 14.8299 64.57 14.8699 64.59 14.8999C64.66 14.9799 64.67 15.0799 64.64 15.1799C64.57 15.3499 64.48 15.5199 64.36 15.6999C64.24 15.8799 64.13 16.0499 64.03 16.2199C63.88 16.4399 63.72 16.6499 63.55 16.8499C63.38 17.0499 63.2 17.2499 63.02 17.4299C62.9 17.5299 62.78 17.6299 62.66 17.7399C62.54 17.8399 62.43 17.9499 62.33 18.0699C62.23 18.1899 62.14 18.3099 62.06 18.4299C61.98 18.5499 61.9 18.6799 61.82 18.8099C61.77 18.8799 61.72 18.9499 61.68 19.0099C61.64 19.0799 61.59 19.1499 61.54 19.2099C61.52 19.2399 61.48 19.2999 61.41 19.3899C61.32 19.4599 61.25 19.5299 61.19 19.6199C61.13 19.7099 61.1 19.7899 61.1 19.8699L61.3 20.1499C61.47 20.1799 61.63 20.2199 61.8 20.2499C61.96 20.2799 62.13 20.3099 62.3 20.3299H63.77C63.89 20.3499 64 20.3599 64.11 20.3799C64.22 20.3999 64.33 20.4099 64.45 20.4299C64.62 20.4499 64.78 20.4699 64.95 20.4899C65.11 20.5199 65.28 20.5299 65.45 20.5299C65.6 20.5299 65.76 20.5199 65.91 20.4899C66.06 20.4599 66.22 20.4399 66.37 20.4299H66.65C66.75 20.4299 66.85 20.4299 66.94 20.4199C67.03 20.4199 67.11 20.3899 67.18 20.3599C67.4 20.2899 67.58 20.1599 67.71 19.9499C67.85 19.7499 67.98 19.5499 68.12 19.3699C68.27 19.1699 68.42 18.9499 68.57 18.7199C68.71 18.4899 68.84 18.2699 68.96 18.0499C69.04 17.8999 69.12 17.7499 69.2 17.5899C69.28 17.4299 69.3601 17.2899 69.4401 17.1599C69.5601 16.9399 69.7 16.7399 69.86 16.5499C70.02 16.3599 70.18 16.1699 70.33 15.9699C70.5 15.7499 70.67 15.5299 70.84 15.3099C71.01 15.0899 71.2 14.8899 71.42 14.6999C71.67 14.4599 71.94 14.2399 72.22 14.0399C72.5 13.8399 72.76 13.6099 73 13.3499C73.12 13.2099 73.23 13.0699 73.34 12.8999C73.45 12.7399 73.5601 12.5699 73.6601 12.4099C73.7601 12.2699 73.86 12.1399 73.95 11.9999C74.04 11.8599 74.1201 11.7299 74.1901 11.5899L74.22 11.5599C74.41 11.3699 74.53 11.0499 74.59 10.5799C74.65 10.1099 74.6601 9.60986 74.6201 9.06986C74.5801 8.52986 74.4901 8.02986 74.3701 7.56986L74.42 7.61986ZM67.81 10.0199C67.7 10.3999 67.51 10.6899 67.24 10.8699L67.21 10.8999C67.14 10.9299 67.07 10.9599 67.01 10.9799C66.94 10.9999 66.87 11.0099 66.78 11.0299H66.73L66.27 10.9499C66.19 10.9299 66.1 10.9199 66.02 10.8999C65.94 10.8799 65.85 10.8599 65.77 10.8199C65.38 10.6499 65.08 10.3999 64.88 10.0599C64.73 9.81986 64.63 9.55986 64.6 9.26986C64.57 8.97986 64.58 8.68986 64.65 8.40986C64.68 8.23986 64.74 8.07986 64.81 7.93986C64.89 7.79986 65 7.66986 65.15 7.56986C65.32 7.46986 65.51 7.40986 65.71 7.38986C65.91 7.36986 66.11 7.36986 66.29 7.38986C66.51 7.41986 66.72 7.47986 66.91 7.55986C67.1 7.63986 67.28 7.75986 67.43 7.92986C67.67 8.16986 67.82 8.47986 67.87 8.86986C67.93 9.25986 67.9 9.64986 67.79 10.0299L67.81 10.0199Z" fill="#FBC02D"/>
<path d="M21.7301 12.55C21.5101 12.28 21.2401 12.04 20.9201 11.84C20.7801 11.74 20.6601 11.65 20.5401 11.59C20.5101 11.57 20.4701 11.56 20.4301 11.54C20.3901 11.52 20.3401 11.51 20.2901 11.49H20.2401L20.2901 11.47C20.2901 11.47 20.3701 11.46 20.4201 11.43C20.4701 11.4 20.5201 11.38 20.5701 11.34C20.7701 11.14 20.9601 10.92 21.1201 10.68C21.2801 10.44 21.4301 10.21 21.5601 9.97003C21.6801 9.78003 21.7801 9.59003 21.8801 9.40003C21.9801 9.21003 22.0501 9.01003 22.1001 8.80003C22.1701 8.55003 22.2001 8.28003 22.1901 8.01003C22.1901 7.74003 22.1701 7.48003 22.1501 7.22003C22.1301 7.17003 22.1201 7.14003 22.1201 7.12003C22.1001 6.87003 22.0701 6.61003 22.0301 6.36003C21.9901 6.11003 21.9201 5.86003 21.8101 5.62003C21.8101 5.60003 21.8101 5.59003 21.7801 5.59003V5.56003C21.5401 5.24003 21.2201 4.90003 20.8001 4.56003C20.3801 4.21003 19.9401 3.89003 19.4801 3.59003C19.0101 3.29003 18.6001 3.09003 18.2501 2.97003H18.2001C17.9601 2.92003 17.7101 2.89003 17.4501 2.89003H15.9101C15.8101 2.89003 15.7101 2.89003 15.6101 2.88003C15.5101 2.88003 15.4101 2.86003 15.3001 2.84003C15.1101 2.84003 14.9301 2.84003 14.7401 2.83003C14.5501 2.83003 14.3701 2.82003 14.1801 2.82003C14.0801 2.82003 13.9801 2.82003 13.8801 2.83003C13.7801 2.83003 13.6801 2.85003 13.5701 2.87003C13.4301 2.89003 13.2901 2.90003 13.1501 2.91003C13.0101 2.91003 12.8701 2.92003 12.7301 2.92003C12.3701 2.90003 12.0201 2.87003 11.6801 2.81003C11.3301 2.75003 10.9801 2.70003 10.6301 2.64003C10.3601 2.61003 10.0801 2.58003 9.80012 2.56003C9.52012 2.54003 9.24012 2.53003 8.95012 2.51003C8.92012 2.51003 8.87012 2.51003 8.82012 2.48003C8.52012 2.46003 8.22012 2.45003 7.93012 2.43003C7.64012 2.41003 7.35012 2.43003 7.04012 2.48003C6.84012 2.51003 6.63012 2.56003 6.42012 2.62003C6.21012 2.68003 6.03012 2.80003 5.90012 2.99003C5.75012 3.16003 5.66012 3.36003 5.65012 3.59003C5.63012 3.82003 5.62012 4.03003 5.60012 4.24003C5.58012 4.68003 5.58012 5.10003 5.60012 5.51003V5.76003C5.62012 5.93003 5.63012 6.11003 5.63012 6.29003C5.63012 6.47003 5.61012 6.65003 5.58012 6.82003C5.56012 6.97003 5.54012 7.12003 5.50012 7.25003C5.47012 7.39003 5.45012 7.52003 5.45012 7.66003V8.17003C5.47012 8.27003 5.48012 8.38003 5.48012 8.50003C5.48012 8.62003 5.48012 8.74003 5.45012 8.86003C5.43012 9.00003 5.40012 9.13003 5.36012 9.25003C5.32012 9.37003 5.28012 9.51003 5.25012 9.64003C5.22012 9.79003 5.19012 9.94003 5.17012 10.08C5.15012 10.22 5.14012 10.37 5.12012 10.52C5.10012 10.55 5.09012 10.61 5.09012 10.67C5.06012 10.82 5.03012 10.98 5.01012 11.13C4.99012 11.28 4.99012 11.44 5.01012 11.59C5.01012 11.91 5.04012 12.23 5.11012 12.53C5.18012 12.83 5.24012 13.14 5.29012 13.44C5.36012 13.73 5.40012 14.02 5.43012 14.3C5.46012 14.58 5.48012 14.88 5.52012 15.16C5.55012 15.43 5.60012 15.71 5.67012 15.99C5.74012 16.27 5.79012 16.54 5.82012 16.82C5.84012 16.97 5.85012 17.12 5.86012 17.27C5.86012 17.41 5.87012 17.56 5.87012 17.71V18.04C5.87012 18.24 5.88012 18.45 5.91012 18.65C5.94012 18.85 5.96012 19.05 5.97012 19.23C5.99012 19.32 6.00012 19.4 6.00012 19.47C6.00012 19.54 6.02012 19.63 6.05012 19.71C6.07012 19.79 6.10012 19.87 6.15012 19.94C6.20012 20.01 6.24012 20.08 6.28012 20.17L6.43012 20.86C6.45012 20.91 6.48012 20.95 6.53012 20.99C6.58012 21.02 6.62012 21.04 6.66012 21.04C6.91012 20.99 7.17012 20.93 7.42012 20.87C7.67012 20.81 7.93012 20.74 8.18012 20.65C8.37012 20.6 8.56012 20.55 8.75012 20.51C8.94012 20.47 9.14012 20.46 9.35012 20.47C9.62012 20.47 9.88012 20.52 10.1301 20.63C10.3801 20.74 10.6301 20.82 10.9001 20.87C11.0901 20.9 11.2801 20.92 11.4801 20.93C11.6801 20.94 11.8901 20.94 12.0901 20.94H12.5601C12.7201 20.94 12.8901 20.94 13.0601 20.97C13.2501 21 13.4401 21.04 13.6301 21.08C13.8201 21.12 14.0201 21.15 14.2001 21.17C14.5901 21.22 14.9801 21.23 15.3801 21.21C15.7801 21.18 16.1601 21.11 16.5401 20.99C17.4501 20.67 18.3201 20.3 19.1301 19.9C19.4901 19.75 19.8501 19.59 20.2201 19.44C20.5901 19.29 20.9301 19.08 21.2401 18.83C21.5301 18.58 21.7601 18.27 21.9301 17.93C22.1001 17.59 22.2301 17.22 22.3101 16.85C22.4601 16.39 22.5301 15.83 22.5301 15.15C22.5301 14.47 22.4201 13.91 22.2101 13.47C22.1101 13.1 21.9501 12.78 21.7301 12.51V12.55ZM11.9001 7.41003C11.8801 7.34003 11.8701 7.27003 11.8601 7.21003C11.8601 7.14003 11.8601 7.08003 11.9001 7.03003C11.9301 6.96003 11.9801 6.93003 12.0401 6.93003H12.2301C12.2801 6.95003 12.3201 6.96003 12.3601 6.96003C12.6501 6.96003 12.9301 6.96003 13.2001 6.99003C13.4501 6.99003 13.7201 7.01003 13.9901 7.05003C14.2601 7.09003 14.5001 7.19003 14.7001 7.34003C14.9001 7.48003 15.0801 7.66003 15.2301 7.90003C15.3801 8.17003 15.4701 8.49003 15.4801 8.87003C15.5001 9.24003 15.3401 9.51003 15.0201 9.68003C14.9201 9.73003 14.8201 9.76003 14.7101 9.76003H14.4101C14.2601 9.74003 14.1201 9.71003 13.9901 9.65003C13.8601 9.59003 13.7301 9.54003 13.6001 9.51003C13.4501 9.46003 13.3001 9.42003 13.1601 9.40003C13.0201 9.37003 12.8701 9.35003 12.7201 9.31003L12.2601 9.44003C12.2601 9.44003 12.2001 9.44003 12.1801 9.41003C12.1501 9.39003 12.1301 9.37003 12.1301 9.33003C12.1101 9.04003 12.0901 8.75003 12.0701 8.47003C12.0401 8.18003 12.0101 7.89003 11.9601 7.58003C11.9601 7.55003 11.9401 7.50003 11.9101 7.43003L11.9001 7.41003ZM15.6901 15.41C15.6601 15.53 15.6201 15.64 15.5801 15.75C15.5401 15.86 15.4801 15.96 15.4101 16.04C15.2901 16.18 15.1501 16.26 14.9901 16.31C14.8301 16.35 14.6601 16.39 14.4901 16.42C14.2701 16.44 14.0501 16.45 13.8301 16.47C13.6101 16.49 13.3901 16.5 13.1701 16.52L12.4601 16.82C12.4601 16.82 12.4201 16.84 12.3801 16.82C12.3501 16.8 12.3301 16.78 12.3301 16.74C12.3001 16.38 12.2701 16.02 12.2401 15.66C12.2101 15.3 12.1801 14.94 12.1301 14.58C12.1301 14.53 12.1101 14.45 12.0801 14.35C12.0601 14.28 12.0501 14.21 12.0301 14.15C12.0101 14.09 12.0301 14.01 12.0601 13.92L12.0901 13.89C12.0901 13.89 12.1201 13.86 12.1401 13.86C12.2401 13.83 12.3501 13.8 12.4701 13.78C12.5901 13.76 12.7101 13.74 12.8301 13.7C12.9701 13.68 13.1101 13.66 13.2501 13.62C13.3901 13.59 13.5401 13.55 13.6901 13.52C13.7101 13.52 13.7401 13.52 13.7901 13.5C13.9801 13.47 14.1601 13.44 14.3501 13.42C14.5401 13.4 14.7201 13.44 14.9101 13.52C15.2501 13.66 15.4801 13.91 15.6001 14.3C15.7201 14.68 15.7501 15.04 15.7001 15.38L15.6901 15.41Z" fill="current"/>
<path d="M38.5 15.3798C38.4 15.3598 38.3 15.3298 38.19 15.2898C38.04 15.2398 37.89 15.2098 37.73 15.1898C37.58 15.1698 37.43 15.1598 37.27 15.1398C36.83 15.0598 36.37 15.0298 35.9 15.0798C35.43 15.1198 34.98 15.1898 34.55 15.2998C34.35 15.3498 34.15 15.3998 33.97 15.4498C33.78 15.4998 33.59 15.5298 33.39 15.5498C33.2 15.5798 33.02 15.5998 32.83 15.5998C32.64 15.5998 32.46 15.5998 32.27 15.5698C32.08 15.5698 31.91 15.5698 31.74 15.5398C31.57 15.5198 31.4 15.5098 31.23 15.5098C31.15 15.4898 31.08 15.4998 31.03 15.5198C30.98 15.5398 30.95 15.5598 30.93 15.5598C30.93 15.5398 30.93 15.5098 30.95 15.4598C31 15.3598 31.03 15.2898 31.03 15.2598C31.05 15.1798 31.06 15.0898 31.08 15.0098C31.1 14.9298 31.11 14.8398 31.13 14.7598C31.2 14.3898 31.26 14.0198 31.32 13.6398C31.38 13.2698 31.43 12.8898 31.49 12.5198C31.54 12.1998 31.55 11.8698 31.53 11.5398C31.51 11.2098 31.48 10.8798 31.47 10.5598C31.45 10.4198 31.44 10.2898 31.43 10.1498C31.43 10.0098 31.41 9.88982 31.39 9.76982V8.91982C31.39 8.63982 31.39 8.36982 31.36 8.08982C31.33 7.62982 31.29 7.16982 31.26 6.69982C31.23 6.22982 31.2 5.75982 31.18 5.28982C31.16 5.04982 31.15 4.80982 31.14 4.54982C31.14 4.29982 31.11 4.04982 31.08 3.80982C31.06 3.61982 31.03 3.42982 30.99 3.22982C30.95 3.02982 30.85 2.86982 30.7 2.74982C30.62 2.67982 30.52 2.63982 30.41 2.61982C30.3 2.59982 30.19 2.58982 30.09 2.56982C29.99 2.56982 29.89 2.56982 29.79 2.57982C29.69 2.58982 29.59 2.59982 29.48 2.61982C29.43 2.61982 29.37 2.61982 29.3 2.62982C29.23 2.62982 29.16 2.63982 29.1 2.63982C28.54 2.66982 27.98 2.68982 27.41 2.67982C26.84 2.67982 26.28 2.65982 25.72 2.63982C25.62 2.61982 25.53 2.60982 25.44 2.60982H25.03C24.98 2.58982 24.92 2.57982 24.87 2.57982C24.82 2.57982 24.76 2.57982 24.7 2.60982C24.6 2.62982 24.51 2.65982 24.42 2.70982C24.34 2.75982 24.27 2.82982 24.22 2.90982C24.14 3.04982 24.1 3.18982 24.11 3.32982C24.11 3.46982 24.14 3.61982 24.17 3.77982C24.2 3.89982 24.22 3.98982 24.22 4.05982C24.24 4.17982 24.25 4.29982 24.25 4.41982V5.10982C24.25 5.20982 24.25 5.30982 24.26 5.38982C24.26 5.46982 24.27 5.56982 24.27 5.66982C24.27 5.83982 24.27 6.00982 24.28 6.18982C24.28 6.36982 24.28 6.53982 24.27 6.70982V6.78982C24.27 6.92982 24.27 7.06982 24.26 7.20982C24.26 7.34982 24.26 7.49982 24.27 7.65982C24.29 7.84982 24.32 8.03982 24.37 8.22982C24.42 8.41982 24.46 8.61982 24.5 8.82982C24.53 9.11982 24.56 9.40982 24.58 9.68982C24.6 9.97982 24.61 10.2698 24.63 10.5498C24.63 10.6298 24.63 10.7198 24.64 10.7898C24.64 10.8698 24.66 10.9398 24.68 11.0098C24.7 11.3098 24.71 11.6098 24.73 11.8998C24.75 12.1898 24.73 12.4798 24.7 12.7898C24.68 13.0798 24.63 13.3598 24.55 13.6398C24.47 13.9198 24.41 14.1998 24.37 14.4898C24.27 14.9798 24.22 15.4798 24.22 15.9898C24.22 16.4998 24.19 16.9998 24.12 17.4898C24.09 17.8098 24.06 18.1398 24.03 18.4698C24 18.7998 24.02 19.1298 24.07 19.4498C24.07 19.5498 24.07 19.6498 24.1 19.7398C24.12 19.8298 24.14 19.9198 24.18 20.0098C24.21 20.1098 24.26 20.1998 24.33 20.2798C24.4 20.3598 24.46 20.4298 24.51 20.4998L24.56 20.5498C24.56 20.5498 24.59 20.5798 24.61 20.5798L25.12 20.7798L25.17 20.8098H25.2C25.27 20.8098 25.33 20.8098 25.38 20.7998C25.43 20.7998 25.49 20.7898 25.56 20.7898C26.1 20.7398 26.67 20.6998 27.27 20.6898C27.87 20.6698 28.42 20.7198 28.91 20.8398H28.94C29.35 20.8898 29.78 20.9698 30.24 21.0698C30.39 21.0998 30.54 21.1398 30.68 21.1798C30.82 21.2198 30.98 21.2498 31.15 21.2698C31.37 21.2698 31.59 21.2498 31.8 21.2198C32.01 21.1898 32.22 21.1398 32.42 21.0898C32.52 21.0698 32.62 21.0598 32.72 21.0398C32.82 21.0198 32.92 21.0098 33.03 20.9898C33.18 20.9598 33.33 20.9298 33.47 20.9298C33.61 20.9298 33.76 20.9198 33.91 20.9198C34.35 20.8498 34.8 20.7798 35.24 20.6898C35.69 20.6098 36.13 20.5098 36.57 20.4098C36.72 20.3798 36.88 20.3598 37.05 20.3498C37.22 20.3498 37.39 20.3198 37.56 20.2898C37.66 20.2698 37.76 20.2498 37.86 20.2098C37.96 20.1798 38.05 20.1298 38.14 20.0598C38.22 19.9898 38.29 19.9098 38.34 19.8098C38.39 19.7098 38.43 19.6198 38.47 19.5298C38.49 19.4498 38.5 19.3698 38.51 19.2898C38.51 19.2098 38.52 19.1398 38.52 19.0698C38.57 18.8798 38.57 18.7398 38.53 18.6498C38.49 18.5598 38.45 18.4998 38.42 18.4898H38.45C38.45 18.4898 38.48 18.5198 38.5 18.5398C38.52 18.5598 38.53 18.5698 38.53 18.5898V18.6198C38.53 18.5698 38.53 18.5198 38.54 18.4798C38.54 18.4398 38.56 18.3898 38.58 18.3398V18.3098C38.6 18.1098 38.63 17.9098 38.69 17.7098C38.75 17.5198 38.8 17.3298 38.85 17.1398C38.85 17.1098 38.85 17.0598 38.88 16.9898C38.95 16.7498 39 16.4998 39.03 16.2398C39.06 15.9798 38.98 15.7498 38.78 15.5698C38.69 15.4898 38.6 15.4298 38.5 15.3998V15.3798Z" fill="current"/>
<path d="M56.8001 11.4998V11.2198C56.8201 10.9298 56.8301 10.6398 56.8301 10.3598C56.8301 10.0798 56.8301 9.77979 56.8601 9.46979C56.8601 9.39979 56.8601 9.29979 56.8901 9.16979C56.9101 8.97979 56.9201 8.78979 56.9201 8.58979C56.9201 8.38979 56.9001 8.18979 56.8701 8.00979C56.8001 7.75979 56.7101 7.50979 56.5901 7.28979C56.4701 7.05979 56.3401 6.83979 56.2101 6.61979C56.0601 6.37979 55.9101 6.14979 55.7701 5.90979C55.6301 5.66979 55.4701 5.43979 55.3001 5.19979C55.1601 5.00979 55.0101 4.83979 54.8401 4.67979C54.6701 4.51979 54.5001 4.35979 54.3301 4.20979C54.1901 4.08979 54.0601 3.96979 53.9401 3.83979C53.8101 3.70979 53.6801 3.59979 53.5501 3.49979C53.3101 3.32979 53.0501 3.20979 52.7701 3.12979C52.4901 3.04979 52.2101 2.98979 51.9201 2.93979C51.7301 2.90979 51.5501 2.86979 51.3601 2.82979C51.1701 2.78979 50.9901 2.74979 50.8001 2.71979C50.6601 2.66979 50.5501 2.63979 50.4701 2.63979C50.3901 2.63979 50.3001 2.63979 50.2201 2.66979C50.1501 2.68979 50.0801 2.69979 50.0001 2.70979C49.9201 2.71979 49.8401 2.69979 49.7301 2.64979C49.7301 2.62979 49.7301 2.61979 49.7001 2.61979H49.6501C49.3801 2.58979 49.1101 2.53979 48.8401 2.47979C48.5701 2.41979 48.2901 2.37979 48.0001 2.36979C47.6801 2.34979 47.3601 2.38979 47.0301 2.47979C46.7101 2.56979 46.3901 2.66979 46.0601 2.76979C45.9801 2.79979 45.8901 2.83979 45.8101 2.86979C45.7201 2.89979 45.6401 2.93979 45.5601 2.96979C45.1901 3.08979 44.8101 3.19979 44.4401 3.30979C44.0701 3.41979 43.7001 3.55979 43.3501 3.72979C43.1501 3.84979 42.9501 3.97979 42.7501 4.10979C42.5501 4.24979 42.3601 4.38979 42.1801 4.53979C42.0301 4.63979 41.8801 4.74979 41.7501 4.85979C41.6101 4.96979 41.4901 5.08979 41.3701 5.22979C41.2201 5.42979 41.0901 5.64979 40.9801 5.87979C40.8701 6.10979 40.7601 6.32979 40.6401 6.54979C40.5401 6.73979 40.4201 6.91979 40.3001 7.09979C40.1701 7.27979 40.0701 7.46979 39.9801 7.66979C39.9101 7.81979 39.8601 7.97979 39.8201 8.14979C39.7801 8.31979 39.7301 8.48979 39.6801 8.65979C39.6501 8.84979 39.6101 9.03979 39.5801 9.22979C39.5501 9.41979 39.5201 9.61979 39.5001 9.79979C39.5001 9.94979 39.5001 10.1098 39.5101 10.2698C39.5101 10.4298 39.5201 10.5898 39.5201 10.7398C39.5401 10.8798 39.5501 11.0098 39.5501 11.1498V11.5598C39.5501 11.6798 39.5501 11.7998 39.5401 11.9198C39.5401 12.0398 39.5201 12.1598 39.5001 12.2798C39.4801 12.4298 39.4701 12.5898 39.4501 12.7498C39.4301 12.9098 39.4301 13.0798 39.4501 13.2498C39.4701 13.5898 39.5001 13.9198 39.5601 14.2498C39.6201 14.5798 39.6701 14.9098 39.7201 15.2498C39.7701 15.6198 39.8201 15.9898 39.8601 16.3498C39.9001 16.7198 40.0201 17.0598 40.2301 17.3798C40.3701 17.5698 40.5201 17.7298 40.6901 17.8798C40.8601 18.0198 41.0301 18.1698 41.2001 18.3198C41.3401 18.4598 41.4701 18.5898 41.5901 18.7298C41.7101 18.8698 41.8501 18.9898 41.9801 19.1098C42.1301 19.2498 42.2901 19.3698 42.4501 19.4898C42.6101 19.6098 42.7701 19.7298 42.9201 19.8498C43.0701 19.9698 43.2301 20.0898 43.3901 20.2098C43.5501 20.3298 43.7201 20.4298 43.9101 20.5198C44.1501 20.6198 44.3901 20.6798 44.6301 20.6998C44.8801 20.7198 45.1201 20.7398 45.3501 20.7798C45.6201 20.8098 45.8901 20.8598 46.1601 20.9098C46.4301 20.9598 46.7001 20.9898 46.9701 21.0098C47.0201 21.0298 47.0801 21.0398 47.1501 21.0398C47.2201 21.0398 47.2801 21.0398 47.3301 21.0098H47.5101L48.1701 21.1598H48.2201C48.6601 21.1598 49.1101 21.1298 49.5701 21.0798C50.0301 21.0298 50.4801 20.9698 50.9201 20.8998C51.1901 20.8498 51.4701 20.8098 51.7501 20.7698C52.0301 20.7398 52.3001 20.6698 52.5801 20.5698C52.8301 20.4698 53.0701 20.3398 53.2801 20.1898C53.4901 20.0398 53.7101 19.8898 53.9301 19.7298L54.3901 19.4198C54.5401 19.3198 54.7001 19.1998 54.8501 19.0598C55.0501 18.8598 55.2401 18.6398 55.4001 18.3998C55.5601 18.1598 55.7201 17.9198 55.8701 17.6598C55.9701 17.5098 56.0701 17.3498 56.1601 17.1898C56.2501 17.0298 56.3401 16.8598 56.4301 16.6898C56.5701 16.3998 56.6701 16.0998 56.7501 15.7698C56.8301 15.4498 56.8801 15.1298 56.9201 14.8098C56.9501 14.5398 56.9601 14.2698 56.9501 13.9998C56.9301 13.7298 56.9101 13.4598 56.8701 13.1898C56.8701 13.0398 56.8701 12.8798 56.8401 12.7298C56.8201 12.5798 56.8101 12.4298 56.8101 12.2998V11.9198C56.8101 11.7998 56.8101 11.6698 56.8401 11.5398L56.8001 11.4998ZM50.3701 10.2498C50.3501 10.3498 50.3401 10.4298 50.3401 10.4798C50.2901 10.9698 50.2601 11.4698 50.2601 11.9698C50.2601 12.4698 50.2201 12.9598 50.1301 13.4598C50.0801 13.7698 50.0101 14.0598 49.9101 14.3398C49.8201 14.6198 49.6801 14.8698 49.4901 15.0898C49.3401 15.2598 49.1801 15.3898 49.0201 15.4798C48.8601 15.5698 48.6901 15.6598 48.5001 15.7498L47.9401 16.0598H47.8901C47.6901 16.0398 47.5001 16.0298 47.3301 16.0098C47.1601 15.9898 46.9801 15.9298 46.8001 15.8298C46.4601 15.6298 46.2201 15.3498 46.0601 14.9898C45.9101 14.6298 45.8301 14.2698 45.8301 13.8998C45.8001 13.3598 45.8501 12.7598 45.9901 12.1098C46.1301 11.4598 46.2801 10.8698 46.4301 10.3398C46.4801 10.1198 46.5101 9.89979 46.5301 9.68979C46.5501 9.47979 46.5601 9.25979 46.5801 9.03979C46.5801 9.00979 46.5801 8.94979 46.5501 8.85979C46.5301 8.78979 46.5201 8.72979 46.5201 8.66979C46.5201 8.60979 46.5401 8.54979 46.5701 8.47979C46.6701 8.32979 46.8401 8.20979 47.0801 8.11979C47.3201 8.03979 47.5201 7.97979 47.6901 7.93979C47.8601 7.90979 48.0401 7.88979 48.2201 7.87979C48.4101 7.87979 48.5801 7.86979 48.7501 7.86979H49.2301C49.3201 7.84979 49.4001 7.83979 49.4801 7.83979C49.5601 7.83979 49.6401 7.85979 49.7101 7.88979C49.8101 7.91979 49.8901 7.97979 49.9501 8.05979C50.0101 8.13979 50.0601 8.21979 50.1201 8.29979C50.2201 8.43979 50.2801 8.57979 50.3101 8.72979C50.3401 8.87979 50.3501 9.02979 50.3501 9.18979C50.3701 9.35979 50.3701 9.52979 50.3601 9.70979C50.3601 9.88979 50.3401 10.0698 50.3201 10.2598L50.3701 10.2498Z" fill="current"/>
<path d="M67.44 7.92023C67.29 7.75023 67.11 7.63023 66.92 7.55023C66.72 7.47023 66.52 7.42023 66.3 7.38023C66.11 7.36023 65.92 7.36023 65.72 7.38023C65.52 7.40023 65.33 7.46023 65.16 7.56023C65.01 7.66023 64.89 7.78023 64.82 7.93023C64.74 8.07023 64.69 8.23023 64.66 8.40023C64.59 8.69023 64.57 8.98023 64.61 9.26023C64.64 9.55023 64.74 9.81023 64.89 10.0502C65.09 10.3902 65.39 10.6402 65.78 10.8102C65.86 10.8402 65.95 10.8702 66.03 10.8902C66.12 10.9102 66.2 10.9202 66.28 10.9402L66.74 11.0202H66.79C66.87 11.0002 66.95 10.9902 67.02 10.9702C67.09 10.9502 67.16 10.9302 67.22 10.8902L67.25 10.8602C67.52 10.6702 67.71 10.3902 67.82 10.0102C67.93 9.63023 67.96 9.24023 67.9 8.85023C67.84 8.46023 67.69 8.15023 67.46 7.91023L67.44 7.92023ZM67.54 9.90023C67.45 10.2202 67.29 10.4602 67.06 10.6102C67.01 10.6402 66.96 10.6702 66.91 10.6702C66.86 10.6702 66.81 10.6902 66.76 10.7102L66.35 10.6302C66.27 10.6102 66.19 10.6002 66.11 10.5902C66.03 10.5902 65.95 10.5602 65.87 10.5302C65.55 10.3902 65.3 10.1802 65.13 9.90023C65.01 9.70023 64.94 9.47023 64.91 9.21023C64.88 8.96023 64.9 8.71023 64.95 8.47023C64.97 8.33023 65 8.21023 65.05 8.10023C65.1 7.99023 65.19 7.90023 65.3 7.83023C65.44 7.75023 65.59 7.69023 65.77 7.68023C65.95 7.67023 66.11 7.66023 66.27 7.68023C66.46 7.70023 66.63 7.74023 66.79 7.81023C66.95 7.88023 67.1 7.98023 67.23 8.12023C67.42 8.32023 67.54 8.59023 67.59 8.92023C67.64 9.25023 67.62 9.58023 67.54 9.90023Z" fill="current"/>
<path d="M74.98 9.10979C74.94 8.52979 74.85 7.99979 74.71 7.50979C74.57 7.01979 74.41 6.65979 74.2 6.43979C74.06 6.16978 73.92 5.89979 73.77 5.63979C73.62 5.37979 73.44 5.12979 73.24 4.88979C73.12 4.74979 72.99 4.62979 72.86 4.51979C72.72 4.40979 72.59 4.29979 72.45 4.19979C72.23 4.02979 72.01 3.85979 71.8 3.68979C71.59 3.51979 71.36 3.36979 71.13 3.22979C70.81 3.02979 70.47 2.83979 70.13 2.67979C69.78 2.51979 69.43 2.39979 69.08 2.30979C68.91 2.27979 68.74 2.24979 68.57 2.22979C68.4 2.20979 68.23 2.18979 68.06 2.14979C68.04 2.14979 67.98 2.14979 67.88 2.11979C67.54 2.06979 67.19 2.02979 66.84 1.98979C66.48 1.95979 66.13 1.95979 65.77 1.98979C65.57 2.00979 65.38 2.03979 65.2 2.08979C65.02 2.13979 64.84 2.18979 64.65 2.23979C64.46 2.28979 64.28 2.33979 64.1 2.38979C63.92 2.43979 63.75 2.49979 63.58 2.56979L63.55 2.59979L63.5 2.62979C63.4 2.72979 63.31 2.78979 63.25 2.78979C63.18 2.78979 63.12 2.79979 63.07 2.79979C63 2.77979 62.93 2.77979 62.84 2.79979C62.76 2.81979 62.64 2.89979 62.48 3.04979C62.16 3.16979 61.83 3.27979 61.5 3.38979C61.17 3.49979 60.87 3.66979 60.6 3.88979C60.43 4.02979 60.28 4.16979 60.14 4.31979C60 4.46979 59.88 4.61979 59.76 4.77979C59.27 5.40979 58.87 6.07978 58.57 6.80978C58.45 7.07978 58.34 7.35978 58.23 7.63978C58.12 7.91978 58.03 8.20978 57.96 8.51978C57.89 8.80978 57.86 9.10979 57.87 9.41979C57.87 9.72979 57.91 10.0398 57.96 10.3498C57.98 10.5198 58 10.6898 58.04 10.8598C58.07 11.0298 58.12 11.1998 58.17 11.3698C58.29 11.7598 58.49 12.0698 58.78 12.3098C59.07 12.5498 59.37 12.7698 59.69 12.9698C59.83 13.0498 59.95 13.1398 60.07 13.2198C60.19 13.3098 60.32 13.3898 60.45 13.4698C60.64 13.5698 60.83 13.6598 61.02 13.7398C61.22 13.8198 61.41 13.9098 61.59 14.0098C61.78 14.0898 61.96 14.1898 62.14 14.2898C62.32 14.3898 62.5 14.4898 62.69 14.5698C63.01 14.7098 63.38 14.8098 63.78 14.8798C63.87 14.9298 63.97 14.9898 64.09 15.0598C64.21 15.1298 64.31 15.1398 64.4 15.1098C64.35 15.2598 64.27 15.4198 64.16 15.5898C64.05 15.7598 63.94 15.9098 63.84 16.0498C63.7 16.2498 63.55 16.4598 63.38 16.6598C63.21 16.8598 63.03 17.0498 62.85 17.2198C62.75 17.3398 62.63 17.4498 62.51 17.5498C62.39 17.6498 62.27 17.7598 62.17 17.8798C62.07 17.9998 61.97 18.1298 61.89 18.2598C61.81 18.3998 61.72 18.5298 61.64 18.6698C61.59 18.7198 61.55 18.7798 61.51 18.8498C61.48 18.9198 61.43 18.9898 61.38 19.0498C61.35 19.0998 61.29 19.1698 61.2 19.2498C61.11 19.3498 61.03 19.4498 60.96 19.5598C60.88 19.6598 60.85 19.7798 60.85 19.9198C60.85 19.9398 60.85 19.9598 60.88 19.9998L60.91 20.0498L61.16 20.3798C61.16 20.3798 61.18 20.4098 61.21 20.4298C61.24 20.4498 61.27 20.4598 61.29 20.4598C61.48 20.5098 61.66 20.5498 61.84 20.5898C62.02 20.6298 62.19 20.6398 62.36 20.6398C62.5 20.6598 62.63 20.6698 62.75 20.6698H63.83C63.95 20.6898 64.07 20.6998 64.19 20.7198C64.31 20.7398 64.43 20.7498 64.55 20.7698C64.7 20.7898 64.86 20.8098 65.03 20.8298C65.2 20.8598 65.37 20.8698 65.54 20.8698C65.69 20.8698 65.85 20.8598 66.01 20.8298C66.17 20.7998 66.33 20.7798 66.48 20.7698C66.55 20.7498 66.65 20.7398 66.79 20.7398C66.89 20.7598 66.99 20.7598 67.09 20.7498C67.19 20.7498 67.29 20.7198 67.4 20.6898C67.64 20.5898 67.84 20.4298 68 20.2098C68.16 19.9898 68.31 19.7798 68.44 19.5798C68.61 19.3598 68.77 19.1398 68.91 18.9098C69.05 18.6798 69.19 18.4598 69.33 18.2398C69.42 18.0898 69.49 17.9298 69.56 17.7798C69.63 17.6298 69.7 17.4798 69.79 17.3498C69.93 17.1498 70.07 16.9498 70.22 16.7698C70.37 16.5798 70.52 16.3898 70.65 16.1898C70.82 15.9898 70.98 15.7698 71.15 15.5598C71.31 15.3398 71.49 15.1398 71.7 14.9798C71.97 14.7398 72.25 14.5198 72.53 14.3198C72.81 14.1198 73.07 13.8798 73.31 13.6098C73.45 13.4698 73.57 13.3198 73.69 13.1498C73.81 12.9798 73.92 12.8098 74.02 12.6398C74.12 12.4998 74.22 12.3698 74.31 12.2298C74.4 12.0998 74.48 11.9498 74.55 11.7998C74.77 11.5798 74.91 11.2198 74.98 10.7298C75.05 10.2398 75.06 9.70979 75.02 9.12979L74.98 9.10979ZM74.65 10.6198C74.59 11.0898 74.47 11.4098 74.28 11.5998L74.25 11.6298C74.18 11.7698 74.1 11.8998 74.01 12.0398C73.92 12.1798 73.82 12.3098 73.72 12.4498C73.62 12.6198 73.51 12.7798 73.4 12.9398C73.29 13.0998 73.18 13.2498 73.06 13.3898C72.82 13.6398 72.56 13.8698 72.28 14.0798C72 14.2898 71.73 14.4998 71.48 14.7398C71.26 14.9298 71.06 15.1298 70.9 15.3498C70.73 15.5698 70.56 15.7898 70.39 16.0098C70.24 16.2098 70.08 16.4098 69.92 16.5898C69.76 16.7698 69.62 16.9798 69.5 17.1998C69.42 17.3398 69.34 17.4798 69.26 17.6298C69.18 17.7798 69.1 17.9298 69.02 18.0898C68.9 18.3098 68.77 18.5298 68.63 18.7598C68.49 18.9898 68.34 19.1998 68.18 19.4098C68.04 19.5998 67.91 19.7898 67.77 19.9898C67.63 20.1898 67.46 20.3298 67.24 20.3998C67.17 20.4298 67.09 20.4498 67 20.4598C66.91 20.4598 66.81 20.4698 66.71 20.4698H66.43C66.28 20.4898 66.12 20.5098 65.97 20.5298C65.82 20.5598 65.67 20.5698 65.51 20.5698C65.34 20.5698 65.18 20.5598 65.01 20.5298C64.85 20.4998 64.68 20.4798 64.51 20.4698C64.39 20.4498 64.28 20.4398 64.17 20.4198C64.06 20.3998 63.95 20.3898 63.83 20.3698H62.36C62.19 20.3498 62.03 20.3298 61.86 20.2898C61.7 20.2598 61.53 20.2198 61.36 20.1898L61.16 19.9098C61.16 19.8298 61.19 19.7398 61.25 19.6598C61.31 19.5798 61.38 19.4998 61.47 19.4298C61.54 19.3498 61.58 19.2898 61.6 19.2498C61.65 19.1798 61.7 19.1098 61.74 19.0498C61.78 18.9798 61.83 18.9098 61.88 18.8498C61.96 18.7098 62.05 18.5898 62.12 18.4698C62.2 18.3498 62.29 18.2298 62.39 18.1098C62.49 17.9898 62.6 17.8798 62.72 17.7798C62.84 17.6798 62.96 17.5798 63.08 17.4698C63.27 17.2798 63.44 17.0898 63.61 16.8898C63.78 16.6898 63.94 16.4798 64.09 16.2598C64.19 16.0898 64.3 15.9198 64.42 15.7398C64.54 15.5598 64.63 15.3898 64.7 15.2198C64.73 15.1198 64.72 15.0198 64.65 14.9398C64.63 14.9098 64.6 14.8698 64.55 14.8398C64.57 14.7698 64.55 14.7698 64.52 14.8398C64.49 14.8098 64.46 14.7798 64.44 14.7598C64.41 14.7298 64.37 14.6998 64.33 14.6798C64.29 14.6598 64.25 14.6798 64.22 14.7598C64.2 14.7798 64.19 14.7898 64.19 14.8098C64.12 14.7798 64.04 14.7198 63.94 14.6298H63.89C63.69 14.5998 63.5 14.5598 63.33 14.5198C63.16 14.4798 62.98 14.4198 62.8 14.3298C62.63 14.2398 62.46 14.1498 62.28 14.0498C62.1 13.9498 61.92 13.8598 61.73 13.7698C61.54 13.6898 61.36 13.5998 61.17 13.5198C60.98 13.4398 60.8 13.3398 60.61 13.2398C60.47 13.1698 60.35 13.0998 60.23 13.0098C60.11 12.9298 59.99 12.8398 59.87 12.7598C59.58 12.5698 59.3 12.3698 59.03 12.1598C58.76 11.9498 58.56 11.6598 58.45 11.3098C58.4 11.1598 58.36 10.9998 58.34 10.8298C58.32 10.6598 58.29 10.4998 58.28 10.3498C58.23 10.0598 58.2 9.76978 58.19 9.48978C58.19 9.19978 58.21 8.90979 58.28 8.62979C58.35 8.35979 58.44 8.08979 58.55 7.81979C58.66 7.54979 58.77 7.27979 58.87 7.00979C59.16 6.29979 59.54 5.64979 60.01 5.04979C60.13 4.89979 60.25 4.74979 60.38 4.60979C60.51 4.46979 60.65 4.32979 60.8 4.21979C61.07 3.99979 61.37 3.83979 61.69 3.73979C62.01 3.63979 62.33 3.51979 62.66 3.37979H62.69V3.34979C62.81 3.24979 62.91 3.18979 62.98 3.16979C63.05 3.14979 63.13 3.13979 63.2 3.13979C63.27 3.15979 63.34 3.15979 63.42 3.13979C63.5 3.11979 63.6 3.04979 63.74 2.90979C63.91 2.83979 64.08 2.78979 64.25 2.74979C64.42 2.70979 64.59 2.65979 64.76 2.60979C64.93 2.55979 65.1 2.50979 65.28 2.45979C65.46 2.40979 65.64 2.37979 65.83 2.35979C66.17 2.32979 66.51 2.32979 66.85 2.35979C67.19 2.38979 67.53 2.43979 67.87 2.48979C67.95 2.50979 68.01 2.51979 68.05 2.51979C68.22 2.54979 68.38 2.57979 68.55 2.59979C68.71 2.61979 68.88 2.63979 69.05 2.67979C69.41 2.75979 69.75 2.87979 70.08 3.03979C70.41 3.18979 70.73 3.35979 71.03 3.54979C71.25 3.68979 71.47 3.82979 71.68 3.98979C71.89 4.14979 72.1 4.31979 72.3 4.48979C72.44 4.58979 72.57 4.69979 72.71 4.80979C72.85 4.91979 72.96 5.02979 73.07 5.14979C73.27 5.36979 73.45 5.60979 73.59 5.86979C73.73 6.12979 73.86 6.39979 73.98 6.66979H74.01V6.68979C74.2 6.87979 74.35 7.19978 74.48 7.65978C74.61 8.11978 74.69 8.61978 74.73 9.15978C74.77 9.69978 74.76 10.2098 74.7 10.6698L74.65 10.6198Z" fill="current"/>
</svg>
